<svg width="441" height="140" viewBox="0 0 441 140" fill="none" xmlns="http://www.w3.org/2000/svg">
<path d="M3.51449 78.4715C3.51449 71.5002 4.81149 65.3799 7.4055 60.1109C10.0806 54.8418 13.6878 50.7887 18.2273 47.9515C22.7669 45.1143 27.8333 43.6957 33.4266 43.6957C38.2093 43.6957 42.384 44.6684 45.9508 46.6139C49.5986 48.5594 52.3952 51.1129 54.3407 54.2744V44.6684H75.1333V112.518H54.3407V102.912C52.3142 106.073 49.477 108.627 45.8292 110.572C42.2624 112.518 38.0877 113.491 33.305 113.491C27.7927 113.491 22.7669 112.072 18.2273 109.235C13.6878 106.317 10.0806 102.223 7.4055 96.9538C4.81149 91.6037 3.51449 85.4429 3.51449 78.4715ZM54.3407 78.5931C54.3407 73.4051 52.8816 69.3115 49.9634 66.3122C47.1262 63.3128 43.6405 61.8132 39.5063 61.8132C35.3721 61.8132 31.8459 63.3128 28.9276 66.3122C26.0904 69.2304 24.6718 73.2835 24.6718 78.4715C24.6718 83.6595 26.0904 87.7937 28.9276 90.8741C31.8459 93.8734 35.3721 95.3731 39.5063 95.3731C43.6405 95.3731 47.1262 93.8734 49.9634 90.8741C52.8816 87.8748 54.3407 83.7811 54.3407 78.5931ZM115.346 113.491C109.428 113.491 104.159 112.477 99.5385 110.451C94.9179 108.424 91.2701 105.668 88.595 102.182C85.92 98.6156 84.4203 94.6435 84.0961 90.2661H104.645C104.889 92.617 105.983 94.5219 107.928 95.9811C109.874 97.4402 112.265 98.1697 115.103 98.1697C117.697 98.1697 119.683 97.6834 121.061 96.7106C122.52 95.6568 123.249 94.3193 123.249 92.698C123.249 90.7525 122.236 89.3339 120.209 88.4422C118.183 87.4695 114.9 86.4157 110.36 85.2808C105.497 84.1459 101.443 82.9705 98.201 81.7546C94.9585 80.4576 92.1618 78.4715 89.811 75.7965C87.4602 73.0403 86.2848 69.352 86.2848 64.7314C86.2848 60.8404 87.3386 57.3142 89.4462 54.1528C91.6349 50.9103 94.7963 48.3568 98.9305 46.4923C103.146 44.6279 108.131 43.6957 113.887 43.6957C122.398 43.6957 129.086 45.8033 133.95 50.0186C138.894 54.2338 141.732 59.8271 142.461 66.7985H123.249C122.925 64.4477 121.871 62.5833 120.088 61.2052C118.386 59.8271 116.116 59.1381 113.279 59.1381C110.847 59.1381 108.982 59.6245 107.685 60.5972C106.388 61.4889 105.74 62.7454 105.74 64.3666C105.74 66.3122 106.753 67.7713 108.78 68.744C110.887 69.7168 114.13 70.6895 118.507 71.6623C123.533 72.9593 127.627 74.2563 130.788 75.5533C133.95 76.7692 136.706 78.7958 139.057 81.633C141.488 84.3891 142.745 88.118 142.826 92.8196C142.826 96.7917 141.691 100.358 139.421 103.52C137.233 106.6 134.031 109.032 129.815 110.816C125.681 112.599 120.858 113.491 115.346 113.491ZM194.578 112.518L173.907 84.0649V112.518H153.115V22.5384H173.907V72.2702L194.457 44.6684H220.113L191.903 78.7147L220.356 112.518H194.578Z" fill="#007BC8"/>
<path d="M378.474 111.505H398.525V75.0211C398.525 70.9104 398.525 61.0089 410.004 61.0089C420.51 61.0089 420.51 70.1866 420.51 74.9023V111.505H440.567V69.587C440.567 56.4174 436.456 51.1021 432.837 47.9637C429.213 44.8198 422.088 42.1676 415.681 42.1676C403.722 42.1676 399.492 48.3256 397.445 51.5883H397.202V44.4633H378.479L378.474 111.505ZM370.02 111.505H349.969V44.4633H370.02V111.505ZM287.146 78.1596C287.146 70.5539 292.218 60.8847 303.697 60.8847C315.176 60.8847 320.61 69.8246 320.61 77.9165C320.61 84.4418 316.38 95.0725 303.821 95.0725C291.262 95.0725 287.146 84.4418 287.146 78.1596ZM340.667 44.4579H320.615V51.5829H320.372C317.958 47.4721 311.794 42.1622 300.802 42.1622C282.922 42.1622 267.1 55.9313 267.1 77.9219C267.1 97.1306 279.546 113.8 300.802 113.8C308.65 113.8 316.985 110.781 320.372 104.256H320.615V111.505H340.667V44.4579ZM229.401 44.4633H248.248V51.5937H248.491C250.182 48.331 253.682 42.173 265.28 42.173V62.3486C255.978 62.5917 249.452 64.5201 249.452 74.67V111.51H229.401V44.4633Z" fill="#BBBCBC"/>
<path d="M371.932 27.6177C371.932 21.0167 366.579 15.6636 359.978 15.6636C353.377 15.6636 348.024 21.0167 348.024 27.6177C348.024 34.2186 353.377 39.5718 359.978 39.5718C366.579 39.5718 371.932 34.2186 371.932 27.6177Z" fill="#007BC8"/>
</svg>
