<svg width="309" height="56" viewBox="0 0 309 56" fill="none" xmlns="http://www.w3.org/2000/svg">
<path d="M184.073 54.2726V0.838832H307.61V54.2726H184.073Z" fill="white" stroke="black" stroke-width="1.67766"/>
<path d="M65.2865 0.117188V55.2309H0V0.117188H65.2865ZM177.43 0.117188V55.2309H183.215V0.117188H177.43Z" fill="#8DC63F"/>
<path d="M177.429 0.117188H65.2852V55.2309H177.429V0.117188Z" fill="#333132"/>
<path d="M28.9043 36.5248V44.808H31.2517V36.5248H28.9043ZM10.4531 36.5155V44.8111H12.819V38.5138H14.6536C15.2621 38.5138 15.6914 38.6651 15.9848 38.977C16.3554 39.3723 16.5068 40.0055 16.5068 41.1698V44.8111H18.7985V40.2309C18.7985 36.9603 16.7075 36.5217 14.6629 36.5217H10.4531M32.6817 36.534V44.8173H36.4868C38.5129 44.8173 39.1739 44.4807 39.8904 43.7271C40.397 43.199 40.7213 42.0377 40.7213 40.7683C40.7213 39.604 40.4464 38.5663 39.9615 37.9177C39.0905 36.7626 37.8427 36.534 35.971 36.534H32.6786H32.6817ZM35.0105 38.3377H36.0204C37.4844 38.3377 38.4295 38.9925 38.4295 40.6911C38.4295 42.3898 37.4844 43.0476 36.0204 43.0476H35.0105V38.3377ZM25.5223 36.534L23.5642 43.097L21.6863 36.534H19.1537L21.8315 44.8173H25.2104L27.9129 36.534H25.5192H25.5223ZM41.8146 44.8173H44.162V36.534H41.8146V44.8173ZM48.3902 36.5371L45.1132 44.8142H47.4235L47.9424 43.3503H51.8186L52.3096 44.8142H54.8207L51.519 36.5371H48.3871H48.3902ZM49.9129 38.0474L51.3337 41.9265H48.4489L49.9129 38.0474ZM25.8034 17.1261V15.1341C25.998 15.1217 26.1926 15.1124 26.3902 15.1063C31.8478 14.9333 35.4274 19.7822 35.4274 19.7822C35.4274 19.7822 31.5605 25.1376 27.4156 25.1376C26.8195 25.1376 26.2821 25.0419 25.8034 24.8813V18.8464C27.9253 19.1027 28.3546 20.0386 29.6302 22.1634L32.4717 19.7729C32.4717 19.7729 30.3961 17.0582 26.9029 17.0582C26.523 17.0582 26.1586 17.0829 25.8034 17.123M25.8034 10.5508V13.5219C25.998 13.5065 26.1956 13.4941 26.3902 13.4848C33.9789 13.2285 38.9237 19.6926 38.9237 19.6926C38.9237 19.6926 33.2469 26.5799 27.3292 26.5799C26.7856 26.5799 26.279 26.5305 25.8034 26.4471V28.2817C26.2111 28.3342 26.6342 28.362 27.0759 28.362C32.5828 28.362 36.564 25.5576 40.4186 22.2375C41.0579 22.7502 43.674 23.9887 44.2145 24.5323C40.5483 27.5929 32.0084 30.0606 27.1624 30.0606C26.696 30.0606 26.2482 30.0328 25.8065 29.9896V32.5715H46.7317V10.5508H25.8034ZM25.8034 24.8782V26.444C20.7134 25.536 19.2957 20.2609 19.2957 20.2609C19.2957 20.2609 21.7419 17.5616 25.8034 17.12V18.8433H25.7972C23.6661 18.587 22.0013 20.5729 22.0013 20.5729C22.0013 20.5729 22.9341 23.9146 25.8065 24.8751M16.76 20.0324C16.76 20.0324 19.7807 15.5912 25.8065 15.1341V13.5219C19.1321 14.0562 13.3533 19.6926 13.3533 19.6926C13.3533 19.6926 16.6272 29.131 25.8065 29.9958V28.2817C19.0703 27.4354 16.76 20.0324 16.76 20.0324Z" fill="#333132"/>
<path d="M81.9782 25.5576C77.3917 25.5576 75.0938 23.2073 75.0938 18.5098V17.7068C75.0938 16.2089 75.3594 14.9271 75.8906 13.8647C76.4188 12.7992 77.1816 11.9838 78.1731 11.4094C79.1676 10.838 80.3567 10.5539 81.7466 10.5539H81.9319C83.3248 10.5539 84.4954 10.8504 85.456 11.4495C86.4134 12.0487 87.1053 12.9042 87.5346 14.016L84.7641 14.9827C84.378 13.7875 83.4268 13.1883 81.9103 13.1883H81.7651C80.5791 13.1883 79.6741 13.5713 79.0471 14.3311C78.4202 15.0939 78.1051 16.2027 78.1051 17.6604V18.5901C78.1051 20.0725 78.4171 21.1689 79.0379 21.8669C79.6587 22.5649 80.6285 22.9201 81.9535 22.9201H82.077C82.6175 22.9201 83.121 22.8769 83.6059 22.7966C84.0877 22.7163 84.5078 22.5896 84.866 22.4228V19.7637H81.7651L82.1172 17.2466H87.76V23.8837C87.0589 24.4334 86.225 24.8473 85.2614 25.1314C84.2977 25.4125 83.2538 25.5515 82.1419 25.5515H81.9751H81.9813L81.9782 25.5576ZM90.3915 25.2704V10.8411H100V13.3953H93.406V16.7154H98.7585L98.4064 19.2695H93.4029V22.7101H100.121V25.2642H90.3853H90.3884L90.3915 25.2704ZM102.771 25.2704V10.8411H112.379V13.3953H105.785V17.086H111.097L110.748 19.6401H105.788V25.2673H102.771V25.2704ZM120.379 25.5576C118.973 25.5576 117.772 25.2704 116.771 24.6929C115.77 24.1153 115.008 23.2969 114.476 22.2375C113.945 21.1782 113.679 19.9212 113.679 18.4665V17.6419C113.679 16.1841 113.945 14.9271 114.476 13.8709C115.004 12.8115 115.77 11.9962 116.771 11.4156C117.772 10.838 118.973 10.5508 120.379 10.5508H120.586C121.991 10.5508 123.192 10.838 124.193 11.4156C125.194 11.9931 125.957 12.8115 126.488 13.8709C127.016 14.9302 127.285 16.1872 127.285 17.6419V18.4665C127.285 19.9243 127.019 21.1813 126.488 22.2375C125.96 23.2969 125.194 24.1122 124.193 24.6929C123.192 25.2704 121.991 25.5576 120.586 25.5576H120.379ZM120.397 22.9201H120.564C121.694 22.9201 122.593 22.5587 123.263 21.8299C123.934 21.101 124.267 20.0046 124.267 18.5314V17.5832C124.267 16.1131 123.934 15.0136 123.263 14.2847C122.593 13.5559 121.694 13.1945 120.564 13.1945H120.397C119.267 13.1945 118.368 13.559 117.698 14.2847C117.031 15.0136 116.694 16.1131 116.694 17.5832V18.5314C116.694 20.0015 117.027 21.101 117.698 21.8299C118.368 22.5587 119.267 22.9201 120.397 22.9201ZM129.552 25.2704V10.8411H135.028C136.708 10.8411 138.039 11.2333 139.027 12.0178C140.013 12.8023 140.504 13.8863 140.504 15.2761V15.6684C140.504 16.6443 140.266 17.4689 139.79 18.1422C139.318 18.8155 138.651 19.3251 137.798 19.6679L140.961 25.2766H137.675L134.821 20.1219H132.569V25.2766H129.555L129.552 25.2704ZM132.566 17.5184H134.941C135.673 17.5184 136.279 17.3825 136.76 17.1076C137.245 16.8327 137.483 16.3725 137.483 15.724V15.2082C137.483 14.5905 137.242 14.1396 136.76 13.8585C136.276 13.5775 135.673 13.4354 134.941 13.4354H132.566V17.5184ZM149.081 25.5576C146.931 25.5576 145.297 24.9338 144.182 23.6829C143.064 22.4321 142.508 20.6871 142.508 18.448V17.645C142.508 16.1872 142.762 14.9302 143.274 13.874C143.784 12.8146 144.528 11.9993 145.507 11.4186C146.486 10.8411 147.676 10.5539 149.081 10.5539H149.248C150.721 10.5539 151.95 10.8782 152.926 11.5206C153.905 12.1691 154.591 13.0802 154.995 14.2631L152.185 15.2545C151.993 14.538 151.635 14.0191 151.119 13.6887C150.604 13.3582 149.98 13.1945 149.248 13.1945H149.124C147.994 13.1945 147.11 13.559 146.477 14.2847C145.844 15.0136 145.526 16.1131 145.526 17.5832V18.5129C145.526 20.0386 145.832 21.1535 146.443 21.8638C147.058 22.5742 147.95 22.9263 149.118 22.9263H149.241C149.986 22.9263 150.628 22.7657 151.163 22.4414C151.703 22.1171 152.077 21.5982 152.299 20.8848L155.048 21.9565C154.637 23.0961 153.93 23.9825 152.942 24.6157C151.947 25.2457 150.718 25.5638 149.241 25.5638H149.075H149.078L149.081 25.5576ZM157.222 25.2704V10.8411H166.831V13.3953H160.237V16.7154H165.589L165.24 19.2695H160.237V22.7101H166.954V25.2642H157.222V25.2704ZM75.7238 44.8111V30.3787H78.4109L84.9618 39.8016V30.3787H87.8342V44.8111H85.1471L78.5962 35.3882V44.8111H75.7238ZM97.1154 45.0984C95.7101 45.0984 94.5086 44.8111 93.5079 44.2336C92.5072 43.6561 91.7443 42.8376 91.2131 41.7783C90.6818 40.7189 90.4162 39.4619 90.4162 38.0072V37.1826C90.4162 35.7249 90.6818 34.4679 91.2131 33.4116C91.7412 32.3523 92.5072 31.5369 93.5079 30.9563C94.5086 30.3756 95.7101 30.0915 97.1154 30.0915H97.3223C98.7276 30.0915 99.9291 30.3787 100.93 30.9563C101.93 31.5338 102.693 32.3523 103.225 33.4116C103.753 34.471 104.021 35.728 104.021 37.1826V38.0072C104.021 39.465 103.756 40.722 103.225 41.7783C102.693 42.8376 101.93 43.653 100.93 44.2336C99.9291 44.8111 98.7276 45.0984 97.3223 45.0984H97.1154ZM97.1339 42.4608H97.3007C98.4311 42.4608 99.3299 42.0964 100 41.3706C100.67 40.6417 101.004 39.5422 101.004 38.0721V37.1239C101.004 35.6538 100.67 34.5543 100 33.8255C99.3299 33.0966 98.4311 32.7352 97.3007 32.7352H97.1339C96.0035 32.7352 95.1047 33.0997 94.4345 33.8255C93.7643 34.5543 93.4307 35.6538 93.4307 37.1239V38.0721C93.4307 39.5422 93.7643 40.6417 94.4345 41.3706C95.1047 42.0995 96.0035 42.4608 97.1339 42.4608ZM104.988 30.3787H108.253L110.918 40.4595L113.544 30.3787H116.314L118.939 40.4595L121.605 30.3787H124.706L120.261 44.8111H117.429L114.844 35.1226L112.259 44.8111H109.426L104.982 30.3787H104.988Z" fill="white"/>
<path d="M196.281 17.026V6.14537H200.411C201.251 6.14537 201.983 6.28744 202.597 6.57158C203.215 6.85572 203.694 7.26032 204.034 7.78227C204.37 8.30731 204.54 8.93426 204.54 9.66932V9.96272C204.54 11.0931 204.166 11.9671 203.416 12.5817C202.668 13.1964 201.668 13.5083 200.411 13.5083H198.558V17.023H196.281V17.026ZM198.558 11.5533H200.349C200.889 11.5533 201.343 11.4328 201.711 11.1981C202.082 10.9572 202.264 10.5681 202.264 10.0152V9.62608C202.264 9.09795 202.079 8.7119 201.711 8.46791C201.34 8.22392 200.886 8.10347 200.349 8.10347H198.558V11.5564V11.5533ZM210.934 17.2422C209.874 17.2422 208.966 17.0261 208.212 16.5875C207.459 16.1551 206.881 15.5343 206.483 14.7375C206.084 13.9407 205.881 12.9925 205.881 11.893V11.2722C205.881 10.1758 206.081 9.22458 206.483 8.42466C206.881 7.62784 207.459 7.01015 208.212 6.57468C208.966 6.14229 209.871 5.91992 210.934 5.91992H211.088C212.147 5.91992 213.055 6.13611 213.809 6.57468C214.563 7.00706 215.14 7.62784 215.539 8.42466C215.94 9.22458 216.141 10.1696 216.141 11.2722V11.893C216.141 12.9894 215.94 13.9407 215.539 14.7375C215.14 15.5374 214.563 16.152 213.809 16.5875C213.055 17.0199 212.15 17.2422 211.088 17.2422H210.934ZM210.949 15.2533H211.072C211.925 15.2533 212.601 14.9784 213.108 14.4317C213.611 13.882 213.865 13.0512 213.865 11.9455V11.229C213.865 10.1202 213.611 9.29252 213.108 8.74278C212.604 8.19303 211.925 7.92124 211.072 7.92124H210.949C210.096 7.92124 209.42 8.19612 208.917 8.74278C208.413 9.29252 208.16 10.1233 208.16 11.229V11.9455C208.16 13.0574 208.413 13.8851 208.917 14.4317C209.42 14.9815 210.1 15.2533 210.949 15.2533ZM216.734 6.14537H219.195L221.206 13.7461L223.186 6.14537H225.274L227.254 13.7461L229.264 6.14537H231.602L228.251 17.026H226.114L224.165 9.72182L222.216 17.026H220.079L216.728 6.14537H216.731H216.734ZM233.026 17.026V6.14537H240.272V8.07258H235.299V10.5742H239.336L239.071 12.5014H235.296V15.0988H240.362V17.026H233.02H233.023H233.026ZM242.239 17.026V6.14537H246.369C247.635 6.14537 248.642 6.43879 249.383 7.03177C250.128 7.62167 250.495 8.44011 250.495 9.49019V9.7836C250.495 10.5187 250.316 11.1394 249.958 11.649C249.6 12.1586 249.096 12.5385 248.454 12.7979L250.838 17.026H248.361L246.208 13.1408H244.51V17.026H242.233H242.236H242.239ZM244.516 11.1827H246.307C246.86 11.1827 247.314 11.0777 247.678 10.8707C248.043 10.6638 248.225 10.3179 248.225 9.82683V9.43768C248.225 8.97132 248.043 8.6316 247.678 8.42158C247.314 8.20848 246.857 8.10347 246.307 8.10347H244.516V11.1827ZM252.296 17.026V6.14537H259.542V8.07258H254.572V10.5742H258.609L258.343 12.5014H254.572V15.0988H259.637V17.026H252.296ZM261.509 17.026V6.14537H265.858C266.957 6.14537 267.887 6.35848 268.641 6.78469C269.394 7.2109 269.966 7.80389 270.355 8.57291C270.744 9.33885 270.939 10.2407 270.939 11.2753V11.8807C270.939 13.4774 270.503 14.7344 269.629 15.6486C268.755 16.5659 267.498 17.026 265.858 17.026H261.509ZM263.785 15.068H265.796C266.72 15.068 267.43 14.8116 267.921 14.2958C268.415 13.7832 268.662 12.9956 268.662 11.927V11.229C268.662 10.2036 268.415 9.42533 267.921 8.8972C267.427 8.36907 266.72 8.10347 265.796 8.10347H263.785V15.068ZM276.94 17.026V6.14537H281.381C282.576 6.14537 283.518 6.41716 284.21 6.96073C284.902 7.5043 285.245 8.23627 285.245 9.15972V9.42533C285.245 9.83919 285.137 10.2098 284.927 10.5372C284.711 10.8646 284.414 11.1363 284.031 11.3525C284.572 11.5687 284.985 11.8776 285.279 12.2698C285.572 12.6651 285.714 13.1346 285.714 13.6843V13.9499C285.714 14.9135 285.375 15.6702 284.692 16.2138C284.009 16.7573 283.061 17.0291 281.847 17.0291H276.937H276.94V17.026ZM279.216 10.5773H281.319C282.422 10.5773 282.972 10.2036 282.972 9.45621V9.19061C282.972 8.83852 282.83 8.56365 282.542 8.36907C282.258 8.17141 281.847 8.07567 281.316 8.07567H279.213V10.5773H279.216ZM279.216 15.1019H281.786C282.888 15.1019 283.438 14.719 283.438 13.953V13.6596C283.438 13.2859 283.296 12.9956 283.009 12.7887C282.725 12.5817 282.314 12.4767 281.783 12.4767H279.213V15.1019H279.216ZM289.584 17.0291V12.7701L285.86 6.14847H288.448L290.77 10.6113L293.108 6.14847H295.601L291.861 12.7701V17.0291H289.584Z" fill="#333132"/>
<path d="M257.172 47.9982H262.428V38.4197C262.428 37.3397 262.428 34.7397 265.442 34.7397C268.196 34.7397 268.196 37.145 268.196 38.393V48.0062H273.455V36.9984C273.455 33.5398 272.38 32.1398 271.426 31.3238C270.471 30.4971 268.602 29.8038 266.927 29.8038C263.791 29.8038 262.681 31.4251 262.145 32.2784H262.076V30.4065H257.169V48.0009H257.172V47.9982ZM254.953 47.9982H249.697V30.3878H254.953V47.9982ZM233.22 39.2383C233.22 37.241 234.545 34.6997 237.559 34.6997C240.572 34.6997 241.991 37.049 241.991 39.1717C241.991 40.8836 240.881 43.6756 237.585 43.6756C234.289 43.6756 233.212 40.8836 233.212 39.2383M247.249 30.3878H241.991V32.2598H241.921C241.289 31.1798 239.676 29.7852 236.788 29.7852C232.097 29.7852 227.948 33.4038 227.948 39.1823C227.948 44.2303 231.212 48.6009 236.788 48.6009C238.852 48.6009 241.036 47.8062 241.921 46.0916H241.991V47.9982H247.249V30.3878ZM218.07 30.3878H223.012V32.2598H223.081C223.521 31.4065 224.441 29.7852 227.486 29.7852V35.0864C225.046 35.1557 223.337 35.6544 223.337 38.321V48.0009H218.081V30.3905H218.07V30.3878Z" fill="#A7AAAB"/>
<path d="M255.466 25.9694C255.466 24.2388 254.066 22.8281 252.33 22.8281C250.594 22.8281 249.191 24.2334 249.191 25.9694C249.191 27.7054 250.594 29.1107 252.33 29.1107C254.066 29.1107 255.466 27.7054 255.466 25.9694Z" fill="#2575BB"/>
</svg>
