<svg width="140" height="18" viewBox="0 0 140 18" fill="none" xmlns="http://www.w3.org/2000/svg">
<path d="M101.67 5.30859L97.8281 17.5653H96.2571L92.8663 7.28397L89.4755 17.5653H87.8812L84.0392 5.30859H85.6336L88.69 15.971L92.1275 5.30859H93.6984L97.0893 15.9943L100.122 5.30859H101.67Z" fill="#0077C8"/>
<path d="M105.994 16.9656C105.076 16.4523 104.345 15.7135 103.817 14.7646C103.288 13.8158 103.016 12.7037 103.016 11.4283C103.016 10.1528 103.288 9.04849 103.824 8.09191C104.361 7.1431 105.1 6.40428 106.025 5.89099C106.951 5.3777 107.993 5.11328 109.144 5.11328C110.295 5.11328 111.337 5.36993 112.278 5.89099C113.219 6.41205 113.95 7.1431 114.479 8.09191C115.008 9.04071 115.28 10.1528 115.28 11.4283C115.28 12.7037 115.008 13.7925 114.471 14.7491C113.935 15.7057 113.188 16.4445 112.247 16.9578C111.306 17.4788 110.256 17.7355 109.105 17.7355C107.954 17.7355 106.912 17.4788 105.994 16.9578V16.9656ZM111.345 15.8223C112.037 15.4568 112.589 14.9046 113.017 14.158C113.445 13.4192 113.655 12.5093 113.655 11.4283C113.655 10.3473 113.445 9.44512 113.025 8.69852C112.605 7.95192 112.053 7.39974 111.36 7.03422C110.668 6.6687 109.922 6.48205 109.113 6.48205C108.304 6.48205 107.557 6.6687 106.865 7.03422C106.173 7.39974 105.629 7.95192 105.216 8.69852C104.804 9.43734 104.602 10.3473 104.602 11.4283C104.602 12.5093 104.804 13.4192 105.216 14.158C105.629 14.8969 106.173 15.4568 106.857 15.8223C107.542 16.1879 108.281 16.3745 109.089 16.3745C109.898 16.3745 110.645 16.1879 111.337 15.8223H111.345Z" fill="#0077C8"/>
<path d="M121.237 5.71198C121.945 5.29201 122.824 5.08203 123.85 5.08203V6.723H123.423C122.287 6.723 121.37 7.03408 120.685 7.64069C119.993 8.25508 119.651 9.28166 119.651 10.7204V17.572H118.08V5.31534H119.651V7.49293C119.993 6.73077 120.522 6.13972 121.237 5.71975V5.71198Z" fill="#0077C8"/>
<path d="M132.771 17.5649L127.716 12.0665V17.5649H126.145V0.945312H127.716V10.7833L132.654 5.30826H134.855L129.038 11.4133L134.902 17.5649H132.771Z" fill="#0077C8"/>
<path d="M80.8433 11.3504C80.7816 8.06799 78.3796 5.2181 75.1126 4.8551C72.2859 4.53845 69.9534 6.02132 68.7718 8.16067C68.0844 6.23757 65.9141 4.83193 63.3345 4.81649C60.755 4.83193 58.5847 6.23757 57.8973 8.16839C56.8933 6.3457 54.9856 4.90917 52.128 4.90917C47.6562 4.90917 45.5168 8.42326 45.5168 11.4353C45.5168 14.4474 47.6639 17.9615 52.128 17.9615C54.7848 17.9615 56.6152 16.7181 57.6733 15.0807V17.5831H61.3574V11.8061C61.3574 11.0569 61.2338 8.7013 63.3345 8.7013C65.4353 8.7013 65.3117 11.0569 65.3117 11.8061V17.5831H68.9958V14.9881C70.1697 16.7644 72.1932 17.9152 74.4253 17.9152C75.6842 17.9152 76.9044 17.5367 77.9239 16.8108C78.5881 16.3551 79.1828 15.7604 79.6771 15.0267L76.6959 13.6288C76.1862 14.2621 75.5451 14.8181 74.4253 14.8181C72.9887 14.8181 71.7684 13.9531 71.5522 12.4934H80.7507C80.797 12.1768 80.8511 11.9682 80.8356 11.3504H80.8433ZM52.1357 14.5247C50.5447 14.5247 49.1931 13.2194 49.1931 11.4276C49.1931 9.63582 50.5447 8.33058 52.1357 8.33058C53.7267 8.33058 55.0783 9.63582 55.0783 11.4276C55.0783 13.2194 53.7267 14.5247 52.1357 14.5247ZM71.5985 10.0143C71.753 9.28055 72.4867 7.91352 74.3866 7.91352C76.2866 7.91352 77.0203 9.28827 77.1748 10.0143H71.5985Z" fill="#0077C8"/>
<path d="M32.3563 17.5825H36.0326V10.8864C36.0326 10.1295 36.0326 8.31452 38.1411 8.31452C40.0719 8.31452 40.0719 9.9982 40.0719 10.8632V17.5825H43.7482V9.89007C43.7482 7.47269 42.9913 6.49955 42.3271 5.92031C41.6629 5.34106 40.3577 4.85449 39.176 4.85449C36.9826 4.85449 36.2025 5.98209 35.8318 6.58451H35.7855V5.27927H32.3486V17.5825H32.3563ZM30.8039 17.5825H27.1276V5.27927H30.8039V17.5825ZM15.5967 11.4656C15.5967 10.0677 16.5312 8.29908 18.6319 8.29908C20.7172 8.29908 21.7367 9.93641 21.7367 11.427C21.7367 12.6241 20.9644 14.5781 18.6551 14.5781C16.4385 14.5781 15.5967 12.6241 15.5967 11.4733M25.4207 5.27927H21.7444V6.58451H21.6981C21.2579 5.82763 20.1225 4.85449 18.1067 4.85449C14.8243 4.85449 11.9204 7.38001 11.9204 11.4193C11.9204 14.9411 14.2065 17.9995 18.1067 17.9995C19.551 17.9995 21.0802 17.4434 21.6981 16.2463H21.7444V17.5747H25.4207V5.27155V5.27927ZM5.00024 5.27927H8.4603V6.58451H8.50664C8.81557 5.98981 9.45661 4.85449 11.5882 4.85449V8.55395C9.88139 8.60029 8.68428 8.95556 8.68428 10.8169V17.5747H5.00797V5.27155L5.00024 5.27927Z" fill="#BBBCBC"/>
<path d="M31.159 2.19037C31.159 0.823347 29.9078 -0.25019 28.4867 0.0510186C27.6603 0.228654 26.9961 0.892857 26.8185 1.71925C26.5173 3.14033 27.5908 4.3915 28.9578 4.3915C30.1704 4.3915 31.1513 3.41065 31.1513 2.19809" fill="#0077C8"/>
</svg>
