<svg width="140" height="18" viewBox="0 0 140 18" fill="none" xmlns="http://www.w3.org/2000/svg">
<g clip-path="url(#clip0_963_3462)">
<path d="M41.3417 17.6031L45.0152 17.6031L45.0152 10.9121C45.0152 10.1558 45.0152 8.34218 47.1221 8.34218C49.0515 8.34218 49.0515 10.0246 49.0515 10.8889L49.0515 17.6031L52.725 17.6031L52.725 9.91653C52.725 7.50098 51.9687 6.52858 51.305 5.94977C50.6413 5.37096 49.337 4.88477 48.1562 4.88477C45.9645 4.88477 45.185 6.01151 44.8146 6.61347L44.7683 6.61347L44.7683 5.30922L41.334 5.30922L41.334 17.6031L41.3417 17.6031ZM39.7905 17.6031L36.117 17.6031L36.117 5.30922L39.7905 5.30922L39.7905 17.6031ZM24.5947 11.4909C24.5947 10.094 25.5286 8.32674 27.6277 8.32674C29.7114 8.32674 30.7301 9.96284 30.7301 11.4523C30.7301 12.6485 29.9584 14.601 27.6509 14.601C25.4359 14.601 24.5947 12.6485 24.5947 11.4986M34.4114 5.30922L30.7379 5.30922L30.7379 6.61347L30.6916 6.61347C30.2517 5.85716 29.1172 4.88477 27.1029 4.88477C23.823 4.88477 20.9212 7.40837 20.9212 11.4446C20.9212 14.9637 23.2056 18.0198 27.1029 18.0198C28.5461 18.0198 30.0742 17.4642 30.6916 16.268L30.7379 16.268L30.7379 17.5954L34.4114 17.5954L34.4114 5.30151L34.4114 5.30922ZM14.0063 5.30922L17.4638 5.30922L17.4638 6.61347L17.5101 6.61347C17.8188 6.01923 18.4593 4.88477 20.5894 4.88477L20.5894 8.58142C18.8838 8.62772 17.6876 8.98273 17.6876 10.8426L17.6876 17.5954L14.0141 17.5954L14.0141 5.30151L14.0063 5.30922Z" fill="#BBBCBC"/>
<path d="M40.1456 2.22191C40.1456 0.855926 38.8954 -0.216797 37.4753 0.0841831C36.6496 0.261684 35.9859 0.925384 35.8084 1.75115C35.5074 3.17116 36.5801 4.42138 37.9461 4.42138C39.1578 4.42138 40.1379 3.44127 40.1379 2.22963" fill="#0077C8"/>
<path d="M124.688 10.8583C124.688 11.3953 124.673 11.8054 124.643 12.0888L114.508 12.0924C114.553 13.0171 114.777 13.8076 115.18 14.4637C115.583 15.1198 116.113 15.6193 116.769 15.9621C117.426 16.29 118.142 16.4538 118.917 16.4535C119.932 16.4532 120.782 16.2068 121.468 15.7143C122.168 15.2219 122.631 14.558 122.854 13.7227L124.51 13.7221C124.212 14.9154 123.571 15.8926 122.587 16.6536C121.617 17.3997 120.394 17.773 118.918 17.7735C117.769 17.7739 116.74 17.5207 115.83 17.0139C114.92 16.4922 114.204 15.7616 113.682 14.8222C113.174 13.8678 112.92 12.7567 112.92 11.4889C112.919 10.2211 113.172 9.10984 113.679 8.15509C114.186 7.20034 114.894 6.46924 115.804 5.96181C116.713 5.45437 117.75 5.20045 118.913 5.20004C120.077 5.19963 121.091 5.45283 121.956 5.95964C122.836 6.46645 123.508 7.15231 123.971 8.01723C124.448 8.86722 124.687 9.81425 124.688 10.8583ZM123.099 10.8141C123.114 9.9043 122.927 9.12877 122.539 8.48756C122.166 7.84634 121.651 7.36178 120.995 7.03387C120.338 6.70597 119.622 6.54215 118.847 6.54243C117.683 6.54284 116.692 6.91607 115.872 7.66211C115.051 8.40816 114.597 9.45984 114.508 10.8172L123.099 10.8141Z" fill="#0077C8"/>
<path d="M111.194 1.04144L111.2 17.5973L109.634 17.5978L109.628 1.04199L111.194 1.04144Z" fill="#0077C8"/>
<path d="M106.407 3.07841C106.094 3.07852 105.826 2.96675 105.602 2.7431C105.378 2.51945 105.266 2.24356 105.266 1.91542C105.266 1.58729 105.378 1.31878 105.601 1.10989C105.825 0.886081 106.093 0.774123 106.407 0.774012C106.72 0.773902 106.988 0.885671 107.212 1.10932C107.436 1.31805 107.548 1.58649 107.548 1.91462C107.548 2.24276 107.436 2.51873 107.213 2.74253C106.989 2.96634 106.721 3.0783 106.407 3.07841ZM107.191 5.38253L107.195 17.5981L105.629 17.5986L105.625 5.38308L107.191 5.38253Z" fill="#0077C8"/>
<path d="M93.1809 8.09473C93.5833 7.24442 94.202 6.55065 95.0371 6.01341C95.8871 5.47616 96.8863 5.20734 98.0347 5.20693C99.1534 5.20654 100.153 5.4672 101.033 5.98892C101.913 6.49573 102.6 7.22633 103.092 8.18073C103.599 9.12021 103.853 10.2164 103.854 11.4693C103.854 12.7221 103.601 13.8259 103.094 14.7807C102.602 15.7354 101.909 16.474 101.014 16.9963C100.135 17.5187 99.1429 17.78 98.0392 17.7804C96.8758 17.7808 95.8689 17.5202 95.0186 16.9984C94.1831 16.4618 93.5714 15.7684 93.1833 14.9184L93.1842 17.6032L91.6405 17.6037L91.6347 1.04785L93.1784 1.04731L93.1809 8.09473ZM102.265 11.4698C102.265 10.4556 102.063 9.58312 101.66 8.85242C101.272 8.10679 100.735 7.54021 100.049 7.15265C99.3627 6.7651 98.5871 6.57148 97.722 6.57178C96.8868 6.57207 96.1187 6.7737 95.4178 7.17666C94.7319 7.57961 94.1877 8.15403 93.7852 8.89993C93.3828 9.64583 93.1817 10.511 93.1821 11.4954C93.1824 12.4798 93.3841 13.3448 93.7871 14.0904C94.19 14.836 94.7346 15.4101 95.4209 15.8125C96.122 16.215 96.8902 16.4161 97.7255 16.4158C98.5906 16.4155 99.3661 16.2213 100.052 15.8333C100.738 15.4303 101.275 14.8559 101.662 14.11C102.065 13.3492 102.266 12.4691 102.265 11.4698Z" fill="#0077C8"/>
<path d="M83.7416 17.7862C82.5931 17.7866 81.5564 17.5334 80.6315 17.0266C79.7215 16.5049 78.9978 15.7743 78.4606 14.8349C77.9382 13.8805 77.6768 12.7694 77.6763 11.5016C77.6759 10.2338 77.944 9.12998 78.4806 8.19014C79.0172 7.23538 79.7478 6.50428 80.6724 5.99683C81.5969 5.47448 82.6334 5.2131 83.7819 5.21269C84.9304 5.21229 85.9671 5.47294 86.892 5.99465C87.8318 6.50143 88.5629 7.23202 89.0853 8.1864C89.6226 9.12587 89.8914 10.2295 89.8919 11.4973C89.8923 12.7502 89.6242 13.854 89.0876 14.8087C88.551 15.7635 87.813 16.5021 86.8735 17.0244C85.934 17.5319 84.89 17.7858 83.7416 17.7862ZM83.7411 16.4215C84.5465 16.4212 85.2922 16.2419 85.9782 15.8837C86.6642 15.5106 87.2158 14.9586 87.6332 14.2276C88.0655 13.4817 88.2814 12.5718 88.281 11.4979C88.2807 10.424 88.0715 9.52167 87.6536 8.79097C87.2358 8.04536 86.6837 7.49369 85.9975 7.13597C85.3112 6.76333 84.5654 6.57716 83.76 6.57744C82.9546 6.57772 82.2089 6.76443 81.5229 7.13755C80.837 7.49575 80.2853 8.04781 79.8679 8.79371C79.4655 9.5247 79.2644 10.4271 79.2648 11.501C79.2652 12.5749 79.4669 13.4847 79.8698 14.2303C80.2877 14.961 80.8323 15.5127 81.5036 15.8853C82.1899 16.243 82.9357 16.4217 83.7411 16.4215Z" fill="#0077C8"/>
<path d="M71.1654 5.17262C72.5973 5.17211 73.7608 5.62661 74.6561 6.53613C75.5662 7.43072 76.0216 8.73563 76.0222 10.4509L76.0247 17.6102L74.481 17.6107L74.4785 10.6304C74.4781 9.30295 74.157 8.28884 73.5154 7.58805C72.8738 6.88726 72.0012 6.53706 70.8974 6.53745C69.749 6.53785 68.8318 6.91851 68.146 7.67943C67.4602 8.44034 67.1175 9.54419 67.118 10.991L67.1203 17.6133L65.5766 17.6138L65.5742 10.6335C65.5737 9.30609 65.2527 8.29197 64.6111 7.59118C63.9695 6.89039 63.0893 6.5402 61.9707 6.54059C60.8222 6.541 59.9051 6.92166 59.2193 7.68257C58.5334 8.44349 58.1908 9.54733 58.1913 10.9941L58.1936 17.6164L56.6275 17.617L56.6232 5.40146L58.1893 5.40091L58.1901 7.50395C58.5776 6.74314 59.1292 6.16871 59.845 5.78067C60.5608 5.3777 61.3587 5.17607 62.2387 5.17576C63.2977 5.17538 64.2225 5.42862 65.0132 5.93546C65.8188 6.44229 66.4007 7.18784 66.7591 8.17212C67.0868 7.20252 67.6459 6.46402 68.4362 5.95662C69.2415 5.43431 70.1512 5.17297 71.1654 5.17262Z" fill="#0077C8"/>
</g>
<defs>
<clipPath id="clip0_963_3462">
<rect width="140" height="18" fill="white"/>
</clipPath>
</defs>
</svg>
