<svg width="140" height="18" viewBox="0 0 140 18" fill="none" xmlns="http://www.w3.org/2000/svg">
<path d="M138.566 10.7144C138.566 11.2518 138.552 11.6622 138.522 11.9458H128.379C128.424 12.8713 128.648 13.6624 129.051 14.3191C129.454 14.9759 129.984 15.4759 130.64 15.8193C131.297 16.1476 132.014 16.3118 132.79 16.3118C133.805 16.3118 134.656 16.0655 135.342 15.573C136.044 15.0804 136.507 14.4162 136.73 13.5803H138.387C138.089 14.7744 137.447 15.7521 136.462 16.5133C135.492 17.2597 134.268 17.6328 132.79 17.6328C131.641 17.6328 130.611 17.3791 129.7 16.8716C128.79 16.3491 128.073 15.6178 127.551 14.6774C127.043 13.7221 126.789 12.6101 126.789 11.3413C126.789 10.0726 127.043 8.96054 127.551 8.00525C128.058 7.04995 128.767 6.31856 129.678 5.81105C130.588 5.30356 131.626 5.0498 132.79 5.0498C133.954 5.0498 134.969 5.30356 135.835 5.81105C136.716 6.31856 137.387 7.00517 137.85 7.87091C138.328 8.72172 138.566 9.66955 138.566 10.7144ZM136.977 10.6696C136.992 9.75911 136.805 8.98293 136.417 8.34109C136.044 7.69925 135.529 7.21414 134.872 6.88576C134.215 6.55738 133.499 6.39319 132.723 6.39319C131.558 6.39319 130.566 6.76635 129.745 7.51267C128.924 8.259 128.469 9.31131 128.379 10.6696H136.977Z" fill="#0077C8"/>
<path d="M120.276 5.00391C121.709 5.00391 122.873 5.45916 123.769 6.36968C124.679 7.26527 125.134 8.57134 125.134 10.2879V17.4526H123.59V10.467C123.59 9.13854 123.269 8.12354 122.627 7.422C121.985 6.72045 121.112 6.36968 120.007 6.36968C118.858 6.36968 117.94 6.7503 117.253 7.51156C116.567 8.27281 116.223 9.37737 116.223 10.8252V17.4526H114.678V10.467C114.678 9.13854 114.357 8.12354 113.716 7.422C113.074 6.72045 112.193 6.36968 111.074 6.36968C109.924 6.36968 109.006 6.7503 108.32 7.51156C107.633 8.27281 107.29 9.37737 107.29 10.8252V17.4526H105.723V5.2278H107.29V7.33244C107.678 6.57119 108.23 5.99652 108.947 5.60843C109.663 5.20541 110.462 5.00391 111.342 5.00391C112.402 5.00391 113.328 5.25766 114.119 5.76516C114.925 6.27266 115.507 7.01898 115.865 8.00413C116.193 7.03391 116.753 6.29505 117.544 5.78755C118.35 5.26512 119.261 5.00391 120.276 5.00391Z" fill="#0077C8"/>
<path d="M97.8176 17.6328C96.6682 17.6328 95.6309 17.3791 94.7054 16.8716C93.7949 16.3491 93.071 15.6178 92.5336 14.6774C92.0112 13.7221 91.75 12.6101 91.75 11.3413C91.75 10.0726 92.0186 8.96801 92.556 8.02764C93.0934 7.07234 93.8247 6.34095 94.7502 5.83344C95.6756 5.31102 96.713 5.0498 97.8624 5.0498C99.0117 5.0498 100.049 5.31102 100.975 5.83344C101.915 6.34095 102.646 7.07234 103.169 8.02764C103.706 8.96801 103.975 10.0726 103.975 11.3413C103.975 12.5951 103.706 13.6997 103.169 14.655C102.631 15.6103 101.893 16.3491 100.952 16.8716C100.012 17.3791 98.9669 17.6328 97.8176 17.6328ZM97.8176 16.2671C98.6236 16.2671 99.3699 16.0879 100.057 15.7297C100.743 15.3565 101.295 14.8043 101.713 14.0729C102.146 13.3265 102.363 12.416 102.363 11.3413C102.363 10.2666 102.154 9.36356 101.736 8.63216C101.318 7.88583 100.766 7.33356 100.079 6.97532C99.3923 6.60216 98.646 6.41558 97.84 6.41558C97.0339 6.41558 96.2876 6.60216 95.601 6.97532C94.9144 7.33356 94.3621 7.88583 93.9442 8.63216C93.5411 9.36356 93.3396 10.2666 93.3396 11.3413C93.3396 12.416 93.5411 13.3265 93.9442 14.0729C94.3621 14.8043 94.9069 15.3565 95.5786 15.7297C96.2652 16.0879 97.0116 16.2671 97.8176 16.2671Z" fill="#0077C8"/>
<path d="M85.2285 5.00447C86.1539 5.00447 86.9824 5.19852 87.7138 5.58661C88.4601 5.97469 89.0422 6.57175 89.4601 7.37778C89.893 8.16889 90.1094 9.13911 90.1094 10.2884V17.4532H88.5646V10.4676C88.5646 9.13911 88.2287 8.12411 87.557 7.42256C86.9003 6.72102 85.9972 6.37025 84.8479 6.37025C83.6687 6.37025 82.7283 6.74341 82.0268 7.48973C81.3252 8.23606 80.9744 9.33315 80.9744 10.781V17.4532H79.4072V0.884766H80.9744V7.31061C81.3625 6.57922 81.9297 6.01201 82.6761 5.609C83.4373 5.20598 84.2881 5.00447 85.2285 5.00447Z" fill="#0077C8"/>
<path d="M76.9333 11.3504C76.8715 8.06799 74.4695 5.2181 71.2026 4.8551C68.3758 4.53845 66.0434 6.02132 64.8617 8.16067C64.1743 6.23757 62.0041 4.83193 59.4245 4.81649C56.8449 4.83193 54.6746 6.23757 53.9873 8.16839C52.9832 6.3457 51.0756 4.90917 48.2179 4.90917C43.7461 4.90917 41.6068 8.42326 41.6068 11.4353C41.6068 14.4474 43.7538 17.9615 48.2179 17.9615C50.8748 17.9615 52.7052 16.7181 53.7633 15.0807V17.5831H57.4473V11.8061C57.4473 11.0569 57.3237 8.7013 59.4245 8.7013C61.5252 8.7013 61.4017 11.0569 61.4017 11.8061V17.5831H65.0857V14.9881C66.2596 16.7644 68.2831 17.9152 70.5152 17.9152C71.7741 17.9152 72.9944 17.5367 74.0139 16.8108C74.6781 16.3551 75.2728 15.7604 75.7671 15.0267L72.7859 13.6288C72.2761 14.2621 71.6351 14.8181 70.5152 14.8181C69.0787 14.8181 67.8584 13.9531 67.6421 12.4934H76.8406C76.8869 12.1768 76.941 11.9682 76.9256 11.3504H76.9333ZM48.2256 14.5247C46.6346 14.5247 45.2831 13.2194 45.2831 11.4276C45.2831 9.63582 46.6346 8.33058 48.2256 8.33058C49.8167 8.33058 51.1682 9.63582 51.1682 11.4276C51.1682 13.2194 49.8167 14.5247 48.2256 14.5247ZM67.6884 10.0143C67.8429 9.28055 68.5766 7.91352 70.4766 7.91352C72.3765 7.91352 73.1102 9.28827 73.2647 10.0143H67.6884Z" fill="#0077C8"/>
<path d="M28.4463 17.5825H32.1226V10.8864C32.1226 10.1295 32.1226 8.31452 34.231 8.31452C36.1619 8.31452 36.1619 9.9982 36.1619 10.8632V17.5825H39.8382V9.89007C39.8382 7.47269 39.0813 6.49955 38.4171 5.92031C37.7529 5.34106 36.4476 4.85449 35.266 4.85449C33.0725 4.85449 32.2925 5.98209 31.9218 6.58451H31.8754V5.27927H28.4385V17.5825H28.4463ZM26.8939 17.5825H23.2176V5.27927H26.8939V17.5825ZM11.6866 11.4656C11.6866 10.0677 12.6212 8.29908 14.7219 8.29908C16.8072 8.29908 17.8267 9.93641 17.8267 11.427C17.8267 12.6241 17.0543 14.5781 14.7451 14.5781C12.5285 14.5781 11.6866 12.6241 11.6866 11.4733M21.5107 5.27927H17.8344V6.58451H17.7881C17.3478 5.82763 16.2125 4.85449 14.1967 4.85449C10.9143 4.85449 8.01032 7.38001 8.01032 11.4193C8.01032 14.9411 10.2964 17.9995 14.1967 17.9995C15.641 17.9995 17.1702 17.4434 17.7881 16.2463H17.8344V17.5747H21.5107V5.27155V5.27927ZM1.09021 5.27927H4.55026V6.58451H4.59661C4.90554 5.98981 5.54658 4.85449 7.67822 4.85449V8.55395C5.97136 8.60029 4.77424 8.95556 4.77424 10.8169V17.5747H1.09793V5.27155L1.09021 5.27927Z" fill="#BBBCBC"/>
<path d="M27.2493 2.19037C27.2493 0.823347 25.9981 -0.25019 24.577 0.0510186C23.7506 0.228654 23.0864 0.892857 22.9087 1.71925C22.6075 3.14033 23.6811 4.3915 25.0481 4.3915C26.2607 4.3915 27.2415 3.41065 27.2415 2.19809" fill="#0077C8"/>
</svg>
