<svg width="10" height="10" viewBox="0 0 10 10" fill="none" xmlns="http://www.w3.org/2000/svg">
<path d="M0.199154 8.79737C-0.0612099 9.05773 -0.0736082 9.52267 0.205353 9.79543C0.478116 10.0682 0.943051 10.062 1.20342 9.80163L4.99729 6.00155L8.79737 9.80163C9.06393 10.0682 9.52267 10.0682 9.79543 9.79543C10.062 9.51647 10.0682 9.06393 9.79543 8.79737L6.00155 4.99729L9.79543 1.20342C10.0682 0.936852 10.0682 0.478116 9.79543 0.205353C9.51647 -0.0612099 9.06393 -0.067409 8.79737 0.199154L4.99729 3.99923L1.20342 0.199154C0.943051 -0.0612099 0.471916 -0.0736081 0.205353 0.205353C-0.067409 0.478116 -0.0612099 0.943051 0.199154 1.20342L3.99923 4.99729L0.199154 8.79737Z" fill="white"/>
</svg>
